<?xml version="1.0" encoding="UTF-8"?>
<!DOCTYPE svg PUBLIC "-//W3C//DTD SVG 1.1//EN" "http://www.w3.org/Graphics/SVG/1.1/DTD/svg11.dtd">
<svg xmlns="http://www.w3.org/2000/svg" version="1.1" width="183px" height="139px" style="shape-rendering:geometricPrecision; text-rendering:geometricPrecision; image-rendering:optimizeQuality; fill-rule:evenodd; clip-rule:evenodd" xmlns:xlink="http://www.w3.org/1999/xlink">
<g><path style="opacity:0.971" fill="#98d8f1" d="M 121.5,-0.5 C 123.833,-0.5 126.167,-0.5 128.5,-0.5C 148.358,4.87563 155.525,17.5423 150,37.5C 143.477,50.5112 132.977,55.6779 118.5,53C 103.171,47.5131 96.6705,36.6798 99,20.5C 102.214,8.78259 109.714,1.78259 121.5,-0.5 Z"/></g>
<g><path style="opacity:0.99" fill="#0375d8" d="M 88.5,138.5 C 84.8333,138.5 81.1667,138.5 77.5,138.5C 50.0884,134.21 26.9217,121.877 8,101.5C 4.31011,95.7921 1.47678,89.7921 -0.5,83.5C -0.5,74.1667 -0.5,64.8333 -0.5,55.5C 2.42075,27.0987 17.7541,16.5987 45.5,24C 68.4989,29.686 87.9989,41.186 104,58.5C 107.754,64.0081 110.42,70.0081 112,76.5C 113.044,89.9303 112.378,103.264 110,116.5C 106.641,127.691 99.4745,135.024 88.5,138.5 Z"/></g>
<g><path style="opacity:0.99" fill="#5eacf1" d="M 151.5,56.5 C 161.726,56.5293 169.559,60.8626 175,69.5C 183.934,81.6027 183.601,93.2694 174,104.5C 162.285,116.607 148.119,123.774 131.5,126C 127.078,125.242 124.245,122.742 123,118.5C 121.043,95.5921 128.21,76.0921 144.5,60C 146.925,58.7874 149.259,57.6207 151.5,56.5 Z"/></g>
</svg>
