<?xml version="1.0" encoding="UTF-8"?>
<svg version="1.1" xmlns="http://www.w3.org/2000/svg" width="460" height="128">
<path d="M0 0 C12.00533035 8.20964046 23.12200092 17.54281631 26.54638672 32.36499023 C28.94753444 46.3130997 28.48749731 65.69361049 21.359375 78.22265625 C17.00137312 83.92061848 12.02312344 88.25065057 5 90 C-21.85573463 92.43371252 -48.60219758 80.88389528 -69 64 C-76.85063029 57.34508109 -82.889367 49.28544119 -85 39 C-86.09598372 22.98200896 -87.01664712 4.48832595 -77 -9 C-57.84675895 -29.93175629 -19.61411461 -12.36486124 0 0 Z " fill="#0375D8" transform="translate(85,38)"/>
<path d="M0 0 C7.14343238 5.23602373 13.01298957 11.74418349 15.375 20.4375 C16.09296428 25.751916 16.14679506 29.92249489 13.6875 34.75 C12.5428125 36.0803125 12.5428125 36.0803125 11.375 37.4375 C10.715 38.365625 10.055 39.29375 9.375 40.25 C-0.66884944 51.87651663 -17.04828162 60.23990844 -32.25 61.8125 C-36.49662795 61.34065245 -38.46307396 60.30529339 -41.625 57.4375 C-45.74803279 49.19143443 -43.3912267 38.37828462 -41 29.875 C-36.74460923 17.33761215 -29.83181008 3.79120241 -17.625 -2.5625 C-11.40758377 -4.65865747 -5.46698426 -3.43906018 0 0 Z " fill="#5EACF1" transform="translate(164.625,55.5625)"/>
<path d="M0 0 C5.48749683 4.07965589 9.10815695 8.95817942 11.0859375 15.55078125 C11.93633945 23.42881039 11.3494148 30.28556511 6.45703125 36.6796875 C1.07149935 42.58745279 -4.70211257 45.83497697 -12.64453125 46.92578125 C-20.91696884 47.29914938 -27.38672692 44.8801538 -34.2265625 40.36328125 C-39.81766237 34.51213023 -42.22176618 29.69448001 -42.4765625 21.48828125 C-42.12610634 13.13124963 -40.17829288 8.4256289 -34.1015625 2.73828125 C-24.24234726 -5.14189443 -11.18769253 -6.59739344 0 0 Z " fill="#98D8F1" transform="translate(139.9140625,3.44921875)"/>
<path d="M0 0 C2.97 0 5.94 0 9 0 C9.34933594 1.42054687 9.69867188 2.84109375 10.05859375 4.3046875 C10.51810523 6.16148901 10.97774742 8.01825817 11.4375 9.875 C11.66759766 10.81214844 11.89769531 11.74929687 12.13476562 12.71484375 C12.35712891 13.61074219 12.57949219 14.50664063 12.80859375 15.4296875 C13.01282959 16.25710449 13.21706543 17.08452148 13.42749023 17.93701172 C13.94007994 20.03995155 13.94007994 20.03995155 15 22 C15.14622803 21.40461426 15.29245605 20.80922852 15.44311523 20.19580078 C16.10545685 17.50492304 16.77143268 14.81495783 17.4375 12.125 C17.66759766 11.18785156 17.89769531 10.25070313 18.13476562 9.28515625 C18.35712891 8.38925781 18.57949219 7.49335937 18.80859375 6.5703125 C19.11494751 5.32918701 19.11494751 5.32918701 19.42749023 4.06298828 C20 2 20 2 21 0 C23.97 0 26.94 0 30 0 C30.84098442 3.06058259 31.67300203 6.12313726 32.5 9.1875 C32.73847656 10.05181641 32.97695312 10.91613281 33.22265625 11.80664062 C33.44824219 12.64775391 33.67382812 13.48886719 33.90625 14.35546875 C34.11572266 15.12528076 34.32519531 15.89509277 34.54101562 16.68823242 C35.03538729 19.17823523 35.07833519 21.46781499 35 24 C35.66 24 36.32 24 37 24 C37.03867188 23.16082031 37.03867188 23.16082031 37.078125 22.3046875 C37.62726889 14.54178977 39.70396004 7.41140342 42 0 C44.97 0 47.94 0 51 0 C49.51374182 7.94662664 47.5623022 15.70175689 45.4375 23.5 C45.12103516 24.67820312 44.80457031 25.85640625 44.47851562 27.0703125 C42.13375235 35.7324953 42.13375235 35.7324953 41 38 C37.7 38 34.4 38 31 38 C30.65066406 36.56785156 30.30132812 35.13570312 29.94140625 33.66015625 C29.4819559 31.79422525 29.02231042 29.9283423 28.5625 28.0625 C28.33240234 27.11697266 28.10230469 26.17144531 27.86523438 25.19726562 C27.64287109 24.29814453 27.42050781 23.39902344 27.19140625 22.47265625 C26.98717041 21.64000244 26.78293457 20.80734863 26.57250977 19.94946289 C26.17303358 18.01329716 26.17303358 18.01329716 25 17 C23.02 23.93 21.04 30.86 19 38 C16.03 38 13.06 38 10 38 C7.22001382 31.05431145 5.24311845 23.97268949 3.3125 16.75 C2.99216797 15.57953125 2.67183594 14.4090625 2.34179688 13.203125 C2.03951172 12.0790625 1.73722656 10.955 1.42578125 9.796875 C1.15161377 8.77948242 0.87744629 7.76208984 0.5949707 6.71386719 C0 4 0 4 0 0 Z " fill="#FFFFFF" transform="translate(212,68)"/>
<path d="M0 0 C0.7734375 -0.00515625 1.546875 -0.0103125 2.34375 -0.015625 C4.5 0.25 4.5 0.25 7.5 2.25 C7.83 1.59 8.16 0.93 8.5 0.25 C11.14 0.25 13.78 0.25 16.5 0.25 C16.5743839 4.71570449 16.62871171 9.18107684 16.66479492 13.6472168 C16.67984353 15.16518438 16.70028738 16.68310876 16.72631836 18.20092773 C16.76287653 20.38796677 16.77976523 22.57442896 16.79296875 24.76171875 C16.8086792 26.07615967 16.82438965 27.39060059 16.84057617 28.74487305 C16.47726902 32.48394167 15.7996347 34.31508495 13.5 37.25 C8.27810329 40.21931381 4.3444891 40.80661801 -1.5 40.25 C-5.09911415 38.8239359 -8.08555311 37.33512658 -10.5 34.25 C-10.5 33.59 -10.5 32.93 -10.5 32.25 C-7.86 31.59 -5.22 30.93 -2.5 30.25 C-2.17 30.91 -1.84 31.57 -1.5 32.25 C2.50254456 32.34181134 2.50254456 32.34181134 6.5 32.25 C7.79633621 31.18354885 7.79633621 31.18354885 7.5625 28.6875 C7.541875 27.883125 7.52125 27.07875 7.5 26.25 C6.84 26.91 6.18 27.57 5.5 28.25 C0.75123555 28.97282078 -3.28620747 28.9327583 -7.5 26.5625 C-11.27015972 22.20325282 -11.94679138 18.23990333 -11.82421875 12.6015625 C-11.29090049 8.7333987 -9.76942902 5.41505652 -7.5 2.25 C-4.377998 0.16866533 -3.56733011 -0.0237822 0 0 Z M-0.5 7.25 C-2.95416273 10.9312441 -3.09384154 13.97261963 -2.5 18.25 C-1.16169042 20.7095774 -1.16169042 20.7095774 0.5 22.25 C3.43443402 21.98343428 3.43443402 21.98343428 6.5 21.25 C8.97342266 17.53986601 8.88503486 15.63939738 8.5 11.25 C7.54826062 8.72959573 7.54826062 8.72959573 5.5 7.25 C2.45746492 6.66654524 2.45746492 6.66654524 -0.5 7.25 Z " fill="#FFFFFF" transform="translate(374.5,76.75)"/>
<path d="M0 0 C2.375 1.5 2.375 1.5 4 3 C4.33 2.34 4.66 1.68 5 1 C7.64 1 10.28 1 13 1 C13.12415248 5.44733299 13.21459457 9.8937326 13.2746582 14.34228516 C13.29971095 15.85353174 13.33376377 17.36465824 13.37719727 18.87548828 C13.4382669 21.05531501 13.46629916 23.23353262 13.48828125 25.4140625 C13.51446533 26.7232666 13.54064941 28.0324707 13.56762695 29.38134766 C12.82194958 34.13508101 11.41596803 35.67223256 8 39 C4.83990467 40.05336511 2.4446864 40.20032888 -0.875 40.25 C-2.41800781 40.28867188 -2.41800781 40.28867188 -3.9921875 40.328125 C-7.41786934 39.95441425 -9.24411425 39.03142555 -12 37 C-13.3125 34.8125 -13.3125 34.8125 -14 33 C-10.91190305 31.23537317 -9.76687864 31 -6 31 C-6 31.66 -6 32.32 -6 33 C-1.9899066 33.17864631 -1.9899066 33.17864631 2 33 C4.28728734 31.16116119 4.28728734 31.16116119 4.125 28.375 C4.08375 27.59125 4.0425 26.8075 4 26 C3.484375 26.495 2.96875 26.99 2.4375 27.5 C-0.95173093 29.58568057 -3.07532775 29.47366734 -7 29 C-10.28962479 27.32415341 -12.36287673 25.98464506 -14.375 22.875 C-15.60368233 17.22306129 -15.76334453 11.99923567 -13.6875 6.5625 C-9.99836519 0.96048047 -6.83190871 -0.55770683 0 0 Z M-4.73046875 8.21875 C-6.33094188 10.46433692 -6.37178422 11.76380528 -6.3125 14.5 C-6.30863281 15.2734375 -6.30476563 16.046875 -6.30078125 16.84375 C-6.11825461 19.29324946 -6.11825461 19.29324946 -4 22 C-1.04279372 22.66680368 -1.04279372 22.66680368 2 22 C4.13353917 20.00155751 4.13353917 20.00155751 5 17 C4.87819443 13.46763845 4.6881657 11.01586365 2.6875 8.0625 C0.029529 6.3889627 -2.17075985 6.41597533 -4.73046875 8.21875 Z " fill="#FFFFFF" transform="translate(364,22)"/>
<path d="M0 0 C2.64 0 5.28 0 8 0 C8 0.99 8 1.98 8 3 C8.474375 2.505 8.94875 2.01 9.4375 1.5 C13.22531305 -0.71725642 16.71173264 -0.70324527 21 0 C24.49890004 2.11391877 25.70578686 3.11736059 27 7 C27.08178114 8.70016844 27.10749501 10.40336297 27.09765625 12.10546875 C27.09443359 13.08837891 27.09121094 14.07128906 27.08789062 15.08398438 C27.07951172 16.10814453 27.07113281 17.13230469 27.0625 18.1875 C27.05798828 19.22326172 27.05347656 20.25902344 27.04882812 21.32617188 C27.0370401 23.88417266 27.02058515 26.44205733 27 29 C24.03 29 21.06 29 18 29 C17.93941406 27.56785156 17.87882812 26.13570312 17.81640625 24.66015625 C17.73201896 22.79425959 17.64737007 20.92837476 17.5625 19.0625 C17.52318359 18.11697266 17.48386719 17.17144531 17.44335938 16.19726562 C17.40146484 15.29814453 17.35957031 14.39902344 17.31640625 13.47265625 C17.27974854 12.64000244 17.24309082 11.80734863 17.20532227 10.94946289 C17.20632897 8.99661142 17.20632897 8.99661142 16 8 C13.5 7.83333333 13.5 7.83333333 11 8 C9.41596476 9.58403524 9.78025065 11.2771638 9.68359375 13.47265625 C9.64169922 14.37177734 9.59980469 15.27089844 9.55664062 16.19726562 C9.49766602 17.61555664 9.49766602 17.61555664 9.4375 19.0625 C9.39431641 20.01189453 9.35113281 20.96128906 9.30664062 21.93945312 C9.20020868 24.29278176 9.09956846 26.64637099 9 29 C6.03 29 3.06 29 0 29 C0 19.43 0 9.86 0 0 Z " fill="#FFFFFF" transform="translate(332,77)"/>
<path d="M0 0 C3.4324659 2.16746723 4.58530871 4.62371425 5.83984375 8.40234375 C6.25 10.5 6.25 10.5 6.25 15.5 C-0.02 15.5 -6.29 15.5 -12.75 15.5 C-12.09 17.15 -11.43 18.8 -10.75 20.5 C-6.03547823 20.79413023 -6.03547823 20.79413023 -1.625 19.4375 C0.94747041 18.1512648 2.5492139 18.74978164 5.25 19.5 C5.1875 21.75 5.1875 21.75 4.25 24.5 C-0.27052471 27.98457113 -3.90233802 29.16266531 -9.60546875 28.890625 C-13.82959211 28.12120362 -16.59626843 25.81895041 -19.359375 22.66015625 C-22.03637726 18.50177914 -22.32723641 13.22641124 -21.3125 8.43359375 C-19.73138722 4.27418911 -17.42865583 1.89112629 -13.75 -0.5 C-8.91373995 -2.11208668 -4.6317438 -2.22755475 0 0 Z M-10.75 5.5 C-11.41 7.15 -12.07 8.8 -12.75 10.5 C-9.12 10.5 -5.49 10.5 -1.75 10.5 C-2.8145852 7.89056942 -2.8145852 7.89056942 -4.75 5.5 C-7.87635209 5.08253392 -7.87635209 5.08253392 -10.75 5.5 Z " fill="#FFFFFF" transform="translate(402.75,23.5)"/>
<path d="M0 0 C3.45211024 2.30140683 4.9826251 4.1448704 6.8125 7.875 C6.8125 10.515 6.8125 13.155 6.8125 15.875 C0.5425 15.875 -5.7275 15.875 -12.1875 15.875 C-11.1975 17.525 -10.2075 19.175 -9.1875 20.875 C-7.14464939 21.47524521 -7.14464939 21.47524521 -5 21.1875 C-3.741875 21.084375 -2.48375 20.98125 -1.1875 20.875 C-1.1875 20.215 -1.1875 19.555 -1.1875 18.875 C1.4525 19.205 4.0925 19.535 6.8125 19.875 C5.54340537 23.78804179 4.34993024 25.73110288 0.8125 27.875 C-4.19777625 29.54509208 -8.51793317 29.45292698 -13.4375 27.75 C-16.92415715 25.37273376 -18.39799365 23.72932136 -20.1875 19.875 C-20.95903215 14.65534881 -20.97977523 9.65876736 -18.5625 4.875 C-13.56413719 -1.43872145 -7.52017398 -2.65417905 0 0 Z M-9.1875 5.875 C-11.1229148 8.26556942 -11.1229148 8.26556942 -12.1875 10.875 C-8.5575 10.875 -4.9275 10.875 -1.1875 10.875 C-1.8475 9.225 -2.5075 7.575 -3.1875 5.875 C-6.06114791 5.45753392 -6.06114791 5.45753392 -9.1875 5.875 Z " fill="#FFFFFF" transform="translate(297.1875,23.125)"/>
<path d="M0 0 C2.64 0 5.28 0 8 0 C8.33 0.99 8.66 1.98 9 3 C9.7115625 2.2265625 9.7115625 2.2265625 10.4375 1.4375 C13.79453416 -0.44571429 16.03108951 -0.12073237 19.78125 0.1875 C23.25757244 1.46051949 24.21156226 2.72522548 26 6 C26.48131856 9.95057252 26.37617444 13.84043161 26.25 17.8125 C26.23195312 18.88693359 26.21390625 19.96136719 26.1953125 21.06835938 C26.14829392 23.71315465 26.0825916 26.35611589 26 29 C23.36 29 20.72 29 18 29 C17.98018066 28.43490723 17.96036133 27.86981445 17.93994141 27.28759766 C17.84481764 24.73292003 17.73508942 22.17907459 17.625 19.625 C17.5940625 18.73554687 17.563125 17.84609375 17.53125 16.9296875 C17.49257812 16.07890625 17.45390625 15.228125 17.4140625 14.3515625 C17.36693115 13.17327881 17.36693115 13.17327881 17.31884766 11.97119141 C17.1600535 9.76997061 17.1600535 9.76997061 15 8 C12.42459787 8.16507646 12.42459787 8.16507646 10 9 C8.88176185 11.23647631 8.80603939 12.64891529 8.68359375 15.1328125 C8.64169922 15.93847656 8.59980469 16.74414062 8.55664062 17.57421875 C8.49766602 18.83685547 8.49766602 18.83685547 8.4375 20.125 C8.39431641 20.97449219 8.35113281 21.82398437 8.30664062 22.69921875 C8.20045764 24.79928223 8.09971503 26.89961948 8 29 C5.36 29 2.72 29 0 29 C0 19.43 0 9.86 0 0 Z " fill="#FFFFFF" transform="translate(228,22)"/>
<path d="M0 0 C3.47632244 1.27301949 4.43031226 2.53772548 6.21875 5.8125 C6.70006856 9.76307252 6.59492444 13.65293161 6.46875 17.625 C6.45070313 18.69943359 6.43265625 19.77386719 6.4140625 20.88085938 C6.36704392 23.52565465 6.3013416 26.16861589 6.21875 28.8125 C3.57875 28.8125 0.93875 28.8125 -1.78125 28.8125 C-2.11125 21.8825 -2.44125 14.9525 -2.78125 7.8125 C-5.09125 8.1425 -7.40125 8.4725 -9.78125 8.8125 C-10.64544223 11.40507669 -10.95705932 13.15287707 -11.09765625 15.82421875 C-11.13955078 16.58154297 -11.18144531 17.33886719 -11.22460938 18.11914062 C-11.26392578 18.90482422 -11.30324219 19.69050781 -11.34375 20.5 C-11.38693359 21.29728516 -11.43011719 22.09457031 -11.47460938 22.91601562 C-11.58052368 24.88131447 -11.68137551 26.84688496 -11.78125 28.8125 C-14.42125 28.8125 -17.06125 28.8125 -19.78125 28.8125 C-19.78125 19.5725 -19.78125 10.3325 -19.78125 0.8125 C-17.14125 0.8125 -14.50125 0.8125 -11.78125 0.8125 C-11.45125 1.4725 -11.12125 2.1325 -10.78125 2.8125 C-10.0696875 2.0390625 -10.0696875 2.0390625 -9.34375 1.25 C-5.98671584 -0.63321429 -3.75016049 -0.30823237 0 0 Z " fill="#FFFFFF" transform="translate(432.78125,22.1875)"/>
<path d="M0 0 C2.64 0 5.28 0 8 0 C8 2.31 8 4.62 8 7 C9.98 7 11.96 7 14 7 C14 9.31 14 11.62 14 14 C12.02 14 10.04 14 8 14 C8.33 18.62 8.66 23.24 9 28 C11.475 28.99 11.475 28.99 14 30 C14 31.98 14 33.96 14 36 C12.60696395 36.13657216 11.20993879 36.23271149 9.8125 36.3125 C9.03519531 36.37050781 8.25789063 36.42851563 7.45703125 36.48828125 C3.62674984 35.72709655 2.28235017 34.11814038 0 31 C-0.58323972 28.03028652 -0.47657979 25.19899519 -0.3125 22.1875 C-0.28994141 21.39923828 -0.26738281 20.61097656 -0.24414062 19.79882812 C-0.18554161 17.86506071 -0.09586827 15.93227833 0 14 C-1.32 14 -2.64 14 -4 14 C-4 11.69 -4 9.38 -4 7 C-2.68 7 -1.36 7 0 7 C0 4.69 0 2.38 0 0 Z " fill="#FFFFFF" transform="translate(301,70)"/>
<path d="M0 0 C2.64 0 5.28 0 8 0 C8 2.31 8 4.62 8 7 C9.98 7 11.96 7 14 7 C14 8.98 14 10.96 14 13 C12.02 13 10.04 13 8 13 C8.33 18.28 8.66 23.56 9 29 C10.65 29 12.3 29 14 29 C14 30.98 14 32.96 14 35 C11.17998673 36.41000664 9.12992745 36.24548451 6 36 C1.36764706 33.73529412 1.36764706 33.73529412 0 31 C-0.08308638 29.62451844 -0.10736016 28.24514204 -0.09765625 26.8671875 C-0.09282227 25.65869141 -0.09282227 25.65869141 -0.08789062 24.42578125 C-0.07951172 23.58402344 -0.07113281 22.74226563 -0.0625 21.875 C-0.05798828 21.02550781 -0.05347656 20.17601563 -0.04882812 19.30078125 C-0.03702874 17.20049091 -0.01909306 15.1002367 0 13 C-1.32 13 -2.64 13 -4 13 C-4 11.02 -4 9.04 -4 7 C-2.68 7 -1.36 7 0 7 C0 4.69 0 2.38 0 0 Z " fill="#FFFFFF" transform="translate(446,16)"/>
<path d="M0 0 C2.64 0 5.28 0 8 0 C8 2.31 8 4.62 8 7 C9.98 7 11.96 7 14 7 C14 8.98 14 10.96 14 13 C12.02 13 10.04 13 8 13 C8.33 17.95 8.66 22.9 9 28 C11.475 28.99 11.475 28.99 14 30 C14 31.65 14 33.3 14 35 C11.56539024 36.21730488 10.25609714 36.04691814 7.5625 35.8125 C6.78003906 35.75707031 5.99757813 35.70164063 5.19140625 35.64453125 C3 35 3 35 1.2265625 33.52734375 C-0.64996957 29.66073148 -0.31648471 25.98334448 -0.1875 21.75 C-0.17396484 20.90953125 -0.16042969 20.0690625 -0.14648438 19.203125 C-0.11123464 17.13514062 -0.0574302 15.06748729 0 13 C-1.32 13 -2.64 13 -4 13 C-4 11.02 -4 9.04 -4 7 C-2.68 7 -1.36 7 0 7 C0 4.69 0 2.38 0 0 Z " fill="#FFFFFF" transform="translate(261,16)"/>
<path d="M0 0 C2.97 0 5.94 0 9 0 C9 12.54 9 25.08 9 38 C6.03 38 3.06 38 0 38 C0 25.46 0 12.92 0 0 Z " fill="#FFFFFF" transform="translate(322,13)"/>
<path d="M0 0 C2.64 0 5.28 0 8 0 C8.33 0.66 8.66 1.32 9 2 C9.66 1.34 10.32 0.68 11 0 C14.625 -0.125 14.625 -0.125 18 0 C18 2.31 18 4.62 18 7 C17.43410156 7.12117188 16.86820312 7.24234375 16.28515625 7.3671875 C15.55167969 7.53476563 14.81820313 7.70234375 14.0625 7.875 C12.96615234 8.11863281 12.96615234 8.11863281 11.84765625 8.3671875 C9.79299706 8.82961523 9.79299706 8.82961523 9 11 C8.84995027 12.3734635 8.75161994 13.7528526 8.68359375 15.1328125 C8.64169922 15.93847656 8.59980469 16.74414062 8.55664062 17.57421875 C8.49766602 18.83685547 8.49766602 18.83685547 8.4375 20.125 C8.39431641 20.97449219 8.35113281 21.82398437 8.30664062 22.69921875 C8.20045764 24.79928223 8.09971503 26.89961948 8 29 C5.36 29 2.72 29 0 29 C0 19.43 0 9.86 0 0 Z " fill="#FFFFFF" transform="translate(265,77)"/>
<path d="M0 0 C2.64 0 5.28 0 8 0 C8 12.54 8 25.08 8 38 C5.36 38 2.72 38 0 38 C0 25.46 0 12.92 0 0 Z " fill="#FFFFFF" transform="translate(309,13)"/>
<path d="M0 0 C2.64 0 5.28 0 8 0 C8 12.54 8 25.08 8 38 C5.36 38 2.72 38 0 38 C0 25.46 0 12.92 0 0 Z " fill="#FFFFFF" transform="translate(214,13)"/>
<path d="M0 0 C2.97 0 5.94 0 9 0 C9 9.24 9 18.48 9 28 C6.03 28 3.06 28 0 28 C0 18.76 0 9.52 0 0 Z " fill="#FFFFFF" transform="translate(336,23)"/>
<path d="M0 0 C2.64 0 5.28 0 8 0 C8 9.57 8 19.14 8 29 C5.36 29 2.72 29 0 29 C0 19.43 0 9.86 0 0 Z " fill="#FFFFFF" transform="translate(319,77)"/>
<path d="M0 0 C2.64 0 5.28 0 8 0 C8 9.57 8 19.14 8 29 C5.36 29 2.72 29 0 29 C0 19.43 0 9.86 0 0 Z " fill="#FFFFFF" transform="translate(286,77)"/>
<path d="M0 0 C5.56818182 0.56818182 5.56818182 0.56818182 7 2 C7.25 4.4375 7.25 4.4375 7 7 C4 9 4 9 1.375 8.6875 C-1 8 -1 8 -2 7 C-2.1875 4.5625 -2.1875 4.5625 -2 2 C-1.34 1.34 -0.68 0.68 0 0 Z " fill="#FFFFFF" transform="translate(338,11)"/>
<path d="M0 0 C3 0.125 3 0.125 4 1.125 C4.125 4.125 4.125 4.125 4 7.125 C3 8.125 3 8.125 0.0625 8.3125 C-3 8.125 -3 8.125 -5 6.125 C-4.27477017 0.17811542 -4.27477017 0.17811542 0 0 Z " fill="#FFFFFF" transform="translate(323,65.875)"/>
<path d="M0 0 C3.0625 0.1875 3.0625 0.1875 5.0625 2.1875 C4.50694444 6.74305556 4.50694444 6.74305556 3.0625 8.1875 C0.72305264 7.90019945 -1.6114143 7.56813221 -3.9375 7.1875 C-3.98004356 5.18795254 -3.97830783 3.18708364 -3.9375 1.1875 C-2.9375 0.1875 -2.9375 0.1875 0 0 Z " fill="#FFFFFF" transform="translate(289.9375,65.8125)"/>
</svg>
